<?xml version="1.0" encoding="UTF-8"?>
<svg id="Layer_1" data-name="Layer 1" xmlns="http://www.w3.org/2000/svg" version="1.1" viewBox="0 0 2934.06 1455.76">
  <defs>
    <style>
      .cls-1 {
        fill: #fdfdfd;
      }

      .cls-1, .cls-2 {
        stroke-width: 0px;
      }

      .cls-2 {
        fill: #fff;
      }
    </style>
  </defs>
  <g id="a5b8LR">
    <g>
      <path class="cls-2" d="M1633.78,809.33c-5.94-5.45-11.01-10.09-15.92-14.6,12.5-12.31,24.58-24.21,37.3-36.73-116.69-139.98,70.46-326.61,210.51-209.18,12.09-12.24,24.2-24.5,36.62-37.09,6.06,6.34,10.7,11.2,15.61,16.34-12.16,11.68-24.61,23.64-36.88,35.42,112.59,155.56-65.91,316.85-210.24,209.46-12.33,12.12-24.65,24.23-37,36.37ZM1841.02,573.66c-102.93-92.5-246.78,54.01-160.94,159.05,53.68-53.05,107.33-106.07,160.94-159.05ZM1699.19,750.01c92.74,84.16,244.43-54.05,156.95-159.61-52.29,53.17-104.56,106.33-156.95,159.61Z"/>
      <path class="cls-2" d="M1276.55,883.89c30.06.13,59.7-2.3,88.41,6.88,56.23,17.45,67.3,90.7,21.48,125.26,63.28,15.73,79.94,113.81,5.45,142.37-36.93,14.01-76.29,6.59-115.34,8.13v-282.64ZM1311.83,1135.3c25.38.79,50.18,1.77,72.61-10.25,27.05-14.88,28.95-56.82,3.8-74.12-23.31-16.04-49.98-13.76-76.42-13.12v97.49ZM1311.97,1008.23c39.35,4.09,77.3-8.96,68.71-57.29-3.07-33.44-42.26-37.44-68.71-35.52v92.82Z"/>
      <path class="cls-2" d="M1276.28,801.71v-283.46c32.52.15,64.73-2.09,95.78,9.66,57.67,24.53,50.48,92.42,17.25,122.34,72.47,26.95,67.49,133.27-10.85,146.87-33.77,6.31-67.44,4.42-102.18,4.59ZM1312.01,670.25v99.8c37.52,2.46,94.94-.64,93.67-49.44,2.03-47.43-57.36-47.98-93.67-50.36ZM1311.78,644.81c28.62-2.22,66.39-2.34,69.07-38.65,8.16-46.61-29.49-59.64-69.07-56.25v94.9Z"/>
      <path class="cls-2" d="M2000.02,682.96v117.97h-34.72v-282.78c33.68-.47,69.09-.59,101.99,7.15,77.96,21.46,64.45,145.17-15.04,153.67,29.46,40.63,58.51,80.7,89,122.74-20.07-2.31-41.15,7.59-52.61-13-22.07-32.99-45.39-65.13-67.6-98.02-5.3-7.85-10.91-10.9-21.02-7.72ZM2000.52,651.94c35.46,3.07,86.68-4.1,86-49.14,3.66-46.86-49.73-54.94-86-53.12v102.27Z"/>
      <path class="cls-2" d="M1666.43,1167.07c-13.36-1.56-42.18,4.9-47.33-6.11-24.2-34.53-48.45-69.03-72.12-103.92-5.3-7.81-10.76-12.11-21.31-8.63v118.19h-34.96v-281.4c29.09-2.09,60.91-.3,90.39,2.58,87.62,11.84,82.37,145.04-3.48,156.75,29.53,40.74,58.65,80.91,88.82,122.53ZM1525.88,1017.77c36.57,2.65,88.66-5.68,85.95-52.21,1.32-45.11-50.79-52.46-85.95-50.16v102.38Z"/>
      <path class="cls-2" d="M2730.67,518.49h34.31v119.46c.69.32,1.38.64,2.07.96,38.67-38.66,76.45-78.2,114.89-117.08,9.36-7.64,35.21-2.11,49.25-3.67-42.9,42.84-84.93,84.8-127.24,127.04,43.6,52.39,86.21,103.58,130.11,156.34-16.7,0-31.46.3-46.19-.29-2.48-.1-5.15-3.74-7.16-6.21-33.89-41.4-66.97-83.18-101.12-124.39-8.31,6.34-15.11,11.86-14.7,24.34,1.14,35.45.22,70.66.35,106.18h-34.58v-282.68Z"/>
      <path class="cls-2" d="M1959.27,1167.06c-12.65,0-23.9.29-35.11-.27-2.05-.1-4.64-3.35-5.75-5.72-9-19.2-17.87-38.47-26.39-57.89-2.26-5.16-4.8-7.49-10.9-7.43-38.36.33-76.73.28-115.1.03-5.55-.04-8.27,1.7-10.49,6.79-8.47,19.44-17.64,38.58-26.13,58.01-2.23,5.12-5.06,6.91-10.58,6.65-9.81-.47-19.65-.13-30.81-.13,45.29-98.78,90-196.32,135.63-295.84,45.54,99.32,90.31,196.95,135.64,295.79ZM1873.74,1063.22c-16.72-37.99-33.01-74.98-50.12-113.83-17.21,39.15-33.42,76.04-50.03,113.83h100.15Z"/>
      <path class="cls-2" d="M2157.97,728.26c12.08-2.51,23.07-4.79,34.5-7.17,6.3,79.59,123.55,64.28,106.76-14.66-8.96-36.1-70.29-44.15-98.89-66.17-100.01-79.72,68.18-190.97,126.91-84.81-9.18,5.52-18.14,10.91-27.49,16.54-48.76-71.24-149.17,19.07-54.76,53.77,53.73,19.73,103.12,46.51,89.59,110.67-16.68,98.63-168.5,91.22-176.62-8.18Z"/>
      <path class="cls-2" d="M2353.62,920.88c-9.56,5.72-18.47,11.06-27.74,16.62-46.75-70.91-150.34,18.18-54.15,53.89,60.11,20.04,107.23,54.22,86.59,121.26-25.34,88.49-167.23,75.41-173.83-18.97,11.78-2.48,23-4.84,34.39-7.25,6.02,80.87,125.8,62.9,106.34-15.93-3.96-12.49-12.38-21.73-23.67-27.56-25.8-13.26-54.07-22.71-77.91-39.52-94.5-87.25,76.5-183.23,129.96-82.54Z"/>
      <path class="cls-2" d="M1972.41,1093.72c11.85-2.51,23.06-4.89,34.57-7.33,5.64,80.93,125.83,62.89,106.3-15.88-8.31-27.69-39.17-33.54-61.71-45.57-13.04-6.48-26.75-12.2-38.52-20.56-96.68-80.81,71.17-188.54,128.49-83.52-9.2,5.55-18.23,11-27.57,16.64-47.25-70.89-150.01,18.28-54.17,53.95,53.92,19.32,104.73,48.13,88.45,114.88-21.29,94.13-168.07,84.75-175.84-12.61Z"/>
      <path class="cls-2" d="M2351.66,518.15c12.74,1.7,36.41-5.54,41.66,7.1,27.74,67.74,53.99,134.6,81.98,202.44,28.52-71,56.31-140.18,84.01-209.17h38.93c-40.94,99.45-81.55,198.1-123,298.82-41.47-100.39-82.24-199.09-123.59-299.19Z"/>
      <path class="cls-2" d="M1538.73,518.56h34.78c-2.37,76.56,5.71,154.14-4.72,230.11-13.38,65.11-71.91,68.76-116.76,47.32,6.47-10.99,12.16-20.64,17.52-29.76,58.96,27.95,68.44-18.43,68.88-66.39.8-60.46.24-120.8.29-181.29Z"/>
      <path class="cls-2" d="M2630.5,518.5h34.18v282.6h-34.18v-282.6Z"/>
    </g>
  </g>
  <path class="cls-2" d="M574.79,261.76c303.4,0,549.35,245.95,549.35,549.35s-245.95,549.35-549.35,549.35S25.44,1114.5,25.44,811.1,271.39,261.76,574.79,261.76M574.79,241.93c-76.83,0-151.37,15.05-221.55,44.74-33.73,14.27-66.26,31.92-96.69,52.48-30.13,20.36-58.47,43.74-84.22,69.49-25.75,25.75-49.13,54.09-69.49,84.22-20.56,30.43-38.21,62.96-52.48,96.69-29.68,70.18-44.74,144.72-44.74,221.55s15.05,151.37,44.74,221.55c14.27,33.73,31.92,66.26,52.48,96.69,20.36,30.13,43.74,58.47,69.49,84.22,25.75,25.75,54.09,49.13,84.22,69.49,30.43,20.56,62.96,38.21,96.69,52.48,70.18,29.69,144.72,44.74,221.55,44.74s151.37-15.05,221.55-44.74c33.73-14.27,66.26-31.92,96.69-52.48,30.13-20.36,58.47-43.74,84.22-69.49,25.75-25.75,49.13-54.09,69.49-84.22,20.56-30.43,38.21-62.96,52.48-96.69,29.68-70.18,44.74-144.72,44.74-221.55s-15.05-151.37-44.74-221.55c-14.27-33.73-31.92-66.26-52.48-96.69-20.36-30.13-43.74-58.47-69.49-84.22-25.75-25.75-54.09-49.13-84.22-69.49-30.43-20.56-62.96-38.21-96.69-52.48-70.18-29.69-144.72-44.74-221.55-44.74h0Z"/>
  <path class="cls-1" d="M572.29,263.23c-5.09-39.58-10.12-79.17-15.3-118.74-5.26-40.14-10.54-80.27-16.17-120.35-.96-6.84,1.51-8.61,7.65-9.3,18.59-2.08,37.13-4.62,55.67-7.06,1.29-.17,2.5-.96,3.74-1.46,3.36,0,6.72,0,10.08,0-.74,17.34,2.48,34.39,4.07,51.54,5.12,55.24,10.59,110.45,16.25,165.63,1.5,14.67,1.92,29.48,4.97,43.98-.85,7.04.85,13.91,1.51,20.84,5.21,54.21,10.48,108.42,15.79,162.63,5.96,60.88,11.96,121.75,17.97,182.62,1.54,15.58,3.2,31.15,4.96,48.2,4.89-9.17,8.57-16.96,13.02-24.29,21.49-35.39,53.02-59.13,89.9-76.45,58.29-27.38,119.58-37.45,183.49-30.28,40.8,4.58,77.62,19.72,110.04,45.15,0,0-.19-.17-.19-.17.54.49,1.09.97,1.63,1.46,47.63,39.15,63.73,92.1,64.71,150.98.54,32.36-6.42,63.74-18.25,93.95-1.11,2.84-1.99,5.77-2.98,8.66-26.83,56.62-62.72,106.86-107.98,150.11-35.56,33.98-71.42,67.71-108.35,100.18-59.56,52.36-115.2,108.37-165.37,169.79-10.53,12.89-20.99,25.83-32.5,40-8.01-60.6-15.81-119.59-23.71-179.27-11.62,10.45-21.98,20.63-33.22,29.72-51.09,41.36-105.9,77.59-159.79,115.07-29.12,20.25-58.76,39.78-85.87,62.77-32.5,24.77-62.73,52.18-92.6,80.01-10.19,9.49-20.22,19.14-32.02,30.31,0-57.31,0-112.77,0-168.23.09-2.51.27-5.02.27-7.53.01-306.38.01-612.75,0-919.13,0-2.51-.18-5.02-.27-7.53.09-64.09.19-128.17.28-192.26q.02-11.68,11.43-11.69c19.59,0,39.19.13,58.78-.09,5.16-.06,7.41.97,7.18,6.88-1.7,44.7-3.08,89.42-4.51,134.13-.26,8.1-.26,16.2-.38,24.3-.75,20.94-1.52,41.87-2.24,62.81-2.99,87.68-5.98,175.35-8.95,263.03-1.7,50.26-3.43,100.52-4.98,150.79-.36,11.74-1.67,23.51-.32,36.87,19.99-34.08,47.33-57.76,81.48-73.3,65.72-29.9,134.25-36.05,204.77-22.25,6.15,1.2,7.86.29,6.98-6.07-4.84-35.15-9.45-70.33-14.09-105.51-8.15-61.77-16.24-123.54-24.42-185.3-7.34-55.39-14.77-110.77-22.16-166.15ZM335.5,1064.25c0,34.39-.4,68.79.1,103.17.67,46.11,2.66,92.17,10.33,137.78q2.42,14.41,14.29,5.89c36.95-26.7,68.62-59.04,98.24-93.4,54.27-62.96,100.6-131.1,133.2-207.97,16.65-39.25,25.38-79.69,17.9-122.5-5.08-29.04-17.89-52.64-45.6-66.09-37.54-18.22-76.81-21.23-116.77-11.35-47.04,11.64-80.23,42.39-106.81,81.38-1.59,2.33-1.39,4.72-1.5,7.2-2.44,55.27-2.96,110.59-3.36,165.9ZM758.1,1172.74c2.03-1.52,3.21-2.24,4.19-3.17,6.69-6.35,13.8-12.33,19.94-19.18,81.98-91.42,140.93-195.85,175.75-313.64,12.15-41.12,15.41-82.68,2.63-124.65-10.52-34.54-32.04-56.45-67.75-64.57-31.11-7.08-61.74-5.41-91.83,3.89-49.61,15.33-81.79,50.47-105.25,95.05-2.9,5.52,1.77,5.85,4.51,7.64,73.31,47.83,96.48,105.22,89.19,188.29-4.19,47.79-23.44,90.41-51.64,129.04-1.71,2.35-4.35,4.33-3.6,8.04,6.3,31.18,12.37,62.42,23.86,93.27Z"/>
</svg>