<?xml version="1.0" encoding="UTF-8"?>
<svg id="Layer_1" data-name="Layer 1" xmlns="http://www.w3.org/2000/svg" version="1.1" viewBox="0 0 2934.06 1455.76">
  <defs>
    <style>
      .cls-1 {
        fill: #fdfdfd;
      }

      .cls-1, .cls-2 {
        stroke-width: 0px;
      }

      .cls-2 {
        fill: #000;
      }
    </style>
  </defs>
  <g id="a5b8LR">
    <g>
      <path class="cls-2" d="M1622.4,810.05c-6-5.5-11.1-10.18-16.06-14.72,12.61-12.42,24.8-24.42,37.62-37.05-117.71-141.2,71.08-329.47,212.35-211.01,12.19-12.35,24.41-24.72,36.94-37.41,6.11,6.39,10.8,11.3,15.75,16.48-12.26,11.78-24.83,23.85-37.2,35.73,113.58,156.92-66.49,319.62-212.07,211.29-12.43,12.22-24.87,24.44-37.33,36.69ZM1831.46,572.31c-103.83-93.31-248.94,54.48-162.35,160.44,54.15-53.51,108.27-106.99,162.35-160.44ZM1688.39,750.2c93.55,84.89,246.57-54.52,158.32-161.01-52.74,53.64-105.47,107.26-158.32,161.01Z"/>
      <path class="cls-2" d="M1262.05,885.25c30.32.13,60.22-2.32,89.19,6.94,56.73,17.61,67.89,91.49,21.67,126.35,63.83,15.87,80.64,114.81,5.49,143.62-37.25,14.13-76.96,6.65-116.35,8.2v-285.11ZM1297.64,1138.86c25.6.79,50.62,1.79,73.25-10.34,27.29-15.01,29.2-57.32,3.84-74.77-23.51-16.18-50.42-13.88-77.09-13.23v98.34ZM1297.78,1010.69c39.69,4.12,77.97-9.04,69.31-57.79-3.1-33.73-42.63-37.77-69.31-35.84v93.63Z"/>
      <path class="cls-2" d="M1261.77,802.35v-285.94c32.8.15,65.29-2.11,96.62,9.74,58.17,24.74,50.92,93.22,17.4,123.41,73.1,27.18,68.08,134.43-10.94,148.16-34.07,6.37-68.03,4.46-103.07,4.63ZM1297.83,669.75v100.67c37.84,2.48,95.77-.64,94.49-49.88,2.05-47.84-57.86-48.4-94.49-50.8ZM1297.59,644.08c28.87-2.24,66.98-2.36,69.67-38.99,8.23-47.02-29.74-60.16-69.67-56.74v95.73Z"/>
      <path class="cls-2" d="M1991.85,682.57v119h-35.02v-285.26c33.97-.48,69.69-.6,102.88,7.21,78.64,21.65,65.02,146.44-15.17,155.02,29.72,40.99,59.03,81.41,89.78,123.81-20.25-2.33-41.51,7.66-53.07-13.12-22.26-33.27-45.79-65.7-68.19-98.88-5.34-7.92-11.01-11-21.2-7.79ZM1992.35,651.27c35.77,3.09,87.43-4.13,86.75-49.57,3.69-47.27-50.16-55.42-86.75-53.59v103.16Z"/>
      <path class="cls-2" d="M1655.34,1170.91c-13.47-1.57-42.55,4.94-47.75-6.17-24.41-34.83-48.87-69.63-72.76-104.82-5.35-7.88-10.86-12.21-21.5-8.71v119.23h-35.27v-283.86c29.35-2.11,61.44-.3,91.18,2.6,88.39,11.94,83.09,146.31-3.51,158.12,29.79,41.1,59.17,81.62,89.6,123.6ZM1513.56,1020.3c36.89,2.67,89.44-5.73,86.7-52.67,1.33-45.51-51.23-52.92-86.7-50.6v103.27Z"/>
      <path class="cls-2" d="M2728.89,516.66h34.61v120.51c.69.32,1.39.64,2.08.97,39-39,77.11-78.88,115.89-118.11,9.44-7.71,35.51-2.13,49.69-3.71-43.28,43.21-85.67,85.54-128.35,128.15,43.98,52.85,86.96,104.49,131.25,157.71-16.84,0-31.74.3-46.59-.29-2.5-.1-5.19-3.77-7.22-6.27-34.19-41.76-67.55-83.91-102.01-125.48-8.38,6.4-15.24,11.97-14.83,24.56,1.15,35.76.22,71.28.35,107.11h-34.88v-285.15Z"/>
      <path class="cls-2" d="M1950.75,1170.91c-12.76,0-24.11.3-35.42-.27-2.06-.1-4.68-3.37-5.8-5.77-9.08-19.37-18.03-38.81-26.62-58.4-2.28-5.2-4.84-7.55-11-7.5-38.7.33-77.41.29-116.11.03-5.6-.04-8.34,1.72-10.58,6.85-8.55,19.61-17.79,38.92-26.36,58.52-2.25,5.16-5.1,6.97-10.67,6.71-9.89-.47-19.82-.13-31.08-.13,45.68-99.65,90.79-198.03,136.81-298.42,45.94,100.19,91.1,198.68,136.82,298.38ZM1864.46,1066.16c-16.87-38.32-33.3-75.63-50.55-114.83-17.36,39.5-33.71,76.71-50.47,114.83h101.02Z"/>
      <path class="cls-2" d="M2151.18,728.27c12.19-2.53,23.28-4.84,34.81-7.23,6.36,80.28,124.63,64.85,107.7-14.79-9.04-36.42-70.91-44.54-99.76-66.75-100.88-80.42,68.78-192.64,128.02-85.55-9.26,5.57-18.29,11.01-27.74,16.69-49.19-71.87-150.47,19.23-55.24,54.24,54.2,19.9,104.02,46.92,90.38,111.63-16.83,99.5-169.97,92.02-178.17-8.25Z"/>
      <path class="cls-2" d="M2348.54,922.57c-9.64,5.77-18.63,11.16-27.99,16.76-47.16-71.53-151.66,18.34-54.62,54.36,60.63,20.22,108.17,54.69,87.35,122.32-25.56,89.27-168.69,76.07-175.35-19.14,11.89-2.5,23.2-4.89,34.7-7.31,6.07,81.58,126.9,63.45,107.27-16.07-3.99-12.6-12.49-21.92-23.88-27.8-26.03-13.38-54.54-22.91-78.59-39.86-95.33-88.01,77.16-184.83,131.1-83.26Z"/>
      <path class="cls-2" d="M1964,1096.92c11.96-2.53,23.26-4.93,34.87-7.39,5.68,81.64,126.93,63.44,107.23-16.02-8.39-27.94-39.51-33.83-62.25-45.97-13.16-6.53-26.98-12.3-38.86-20.74-97.53-81.51,71.79-190.19,129.61-84.25-9.28,5.6-18.39,11.1-27.81,16.78-47.67-71.51-151.33,18.44-54.65,54.43,54.39,19.49,105.65,48.55,89.22,115.89-21.47,94.95-169.54,85.49-177.38-12.72Z"/>
      <path class="cls-2" d="M2346.56,516.32c12.85,1.71,36.73-5.58,42.03,7.16,27.98,68.34,54.47,135.77,82.7,204.21,28.77-71.62,56.8-141.41,84.75-211h39.27c-41.29,100.32-82.26,199.84-124.08,301.44-41.83-101.27-82.96-200.83-124.67-301.8Z"/>
      <path class="cls-2" d="M1526.52,516.73h35.09c-2.39,77.23,5.76,155.49-4.76,232.13-13.5,65.68-72.54,69.36-117.78,47.74,6.53-11.09,12.26-20.82,17.68-30.02,59.47,28.2,69.04-18.59,69.48-66.97.8-60.99.24-121.86.29-182.88Z"/>
      <path class="cls-2" d="M2627.84,516.67h34.48v285.07h-34.48v-285.07Z"/>
    </g>
  </g>
  <circle class="cls-2" cx="554.15" cy="811.83" r="554.15"/>
  <path class="cls-1" d="M551.63,259.16c-5.14-39.93-10.21-79.87-15.44-119.78-5.31-40.49-10.63-80.97-16.31-121.41-.97-6.9,1.52-8.69,7.72-9.38,18.75-2.1,37.45-4.66,56.16-7.12,1.3-.17,2.52-.97,3.77-1.47,3.39,0,6.78,0,10.17,0-.75,17.49,2.5,34.69,4.11,51.99,5.16,55.72,10.68,111.41,16.39,167.08,1.52,14.8,1.93,29.73,5.01,44.36-.86,7.1.86,14.03,1.53,21.02,5.26,54.69,10.58,109.37,15.93,164.05,6.01,61.41,12.06,122.82,18.13,184.22,1.55,15.72,3.23,31.42,5,48.62,4.93-9.25,8.64-17.11,13.13-24.5,21.68-35.7,53.49-59.65,90.69-77.12,58.8-27.62,120.63-37.78,185.09-30.54,41.16,4.62,78.3,19.89,111,45.55,0,0-.19-.17-.19-.17.55.49,1.1.98,1.64,1.47,48.05,39.49,64.29,92.91,65.28,152.3.54,32.64-6.48,64.3-18.41,94.77-1.12,2.87-2.01,5.82-3.01,8.74-27.07,57.12-63.27,107.79-108.93,151.42-35.87,34.28-72.05,68.3-109.3,101.05-60.08,52.82-116.21,109.32-166.82,171.27-10.62,13-21.18,26.06-32.79,40.35-8.08-61.13-15.95-120.63-23.91-180.84-11.72,10.54-22.17,20.81-33.51,29.98-51.54,41.72-106.83,78.27-161.19,116.08-29.38,20.43-59.27,40.13-86.62,63.32-32.79,24.99-63.28,52.64-93.41,80.71-10.28,9.57-20.4,19.31-32.3,30.58,0-57.81,0-113.76,0-169.7.09-2.53.27-5.07.27-7.6.01-309.06.01-618.11,0-927.17,0-2.53-.18-5.07-.27-7.6.09-64.65.19-129.29.28-193.94q.02-11.79,11.53-11.79c19.77,0,39.53.13,59.3-.09,5.21-.06,7.47.98,7.24,6.95-1.71,45.09-3.11,90.2-4.55,135.31-.26,8.17-.26,16.34-.38,24.52-.75,21.12-1.54,42.24-2.26,63.36-3.02,88.44-6.03,176.89-9.02,265.33-1.72,50.7-3.46,101.4-5.02,152.11-.36,11.84-1.69,23.71-.32,37.19,20.16-34.37,47.75-58.27,82.19-73.94,66.29-30.16,135.42-36.37,206.56-22.45,6.21,1.21,7.93.29,7.04-6.13-4.88-35.46-9.53-70.95-14.21-106.44-8.22-62.31-16.38-124.62-24.63-186.92-7.4-55.88-14.9-111.74-22.36-167.61ZM312.77,1067.19c0,34.69-.41,69.39.1,104.08.68,46.52,2.69,92.97,10.42,138.98q2.44,14.54,14.42,5.94c37.28-26.94,69.22-59.56,99.1-94.22,54.75-63.51,101.48-132.25,134.36-209.78,16.79-39.59,25.61-80.39,18.06-123.58-5.12-29.29-18.05-53.11-46-66.67-37.87-18.38-77.48-21.42-117.8-11.44-47.45,11.74-80.93,42.76-107.75,82.09-1.6,2.35-1.4,4.77-1.51,7.26-2.46,55.76-2.99,111.56-3.39,167.35ZM739.06,1176.63c2.05-1.54,3.23-2.26,4.22-3.2,6.75-6.4,13.92-12.44,20.12-19.34,82.7-92.22,142.17-197.57,177.29-316.39,12.26-41.48,15.54-83.4,2.65-125.74-10.61-34.84-32.32-56.94-68.34-65.14-31.38-7.14-62.28-5.46-92.63,3.92-50.04,15.46-82.5,50.91-106.17,95.88-2.93,5.57,1.79,5.9,4.55,7.7,73.95,48.25,97.32,106.14,89.97,189.93-4.23,48.21-23.64,91.2-52.09,130.17-1.73,2.37-4.39,4.37-3.63,8.11,6.36,31.45,12.48,62.97,24.07,94.08Z"/>
</svg>