<svg width="256" height="256" viewBox="0 0 256 256" fill="none" xmlns="http://www.w3.org/2000/svg">
  <rect x="20" y="20" width="216" height="216" rx="28" fill="#6A0DAD"/>
  <circle cx="84" cy="110" r="16" fill="white"/>
  <circle cx="128" cy="110" r="16" fill="white"/>
  <circle cx="172" cy="110" r="16" fill="white"/>
  <path d="M64 148C64 136 73 126 84 126C95 126 104 136 104 148V158H64V148Z" fill="white"/>
  <path d="M108 148C108 136 117 126 128 126C139 126 148 136 148 148V158H108V148Z" fill="white"/>
  <path d="M152 148C152 136 161 126 172 126C183 126 192 136 192 148V158H152V148Z" fill="white"/>
  <circle cx="58" cy="64" r="10" fill="#C9A227"/>
  <circle cx="92" cy="64" r="10" fill="#C9A227"/>
  <circle cx="126" cy="64" r="10" fill="#C9A227"/>
  <circle cx="160" cy="64" r="10" fill="#C9A227"/>
  <circle cx="194" cy="64" r="10" fill="#C9A227"/>
  <rect x="44" y="188" width="72" height="22" rx="11" fill="white"/>
  <rect x="140" y="176" width="72" height="34" rx="17" fill="white"/>
</svg>
